<svg width="1536" height="434" viewBox="0 0 1536 434" fill="none" xmlns="http://www.w3.org/2000/svg">
<rect width="1456" height="354" transform="translate(40 40)" fill="#DCDBD2"/>
<g filter="url(#filter0_d_0_1)">
<path d="M209.136 166V119.455H214.773V140.182H239.591V119.455H245.227V166H239.591V145.182H214.773V166H209.136ZM269.966 166.727C266.814 166.727 264.049 165.977 261.67 164.477C259.307 162.977 257.458 160.879 256.125 158.182C254.807 155.485 254.148 152.333 254.148 148.727C254.148 145.091 254.807 141.917 256.125 139.205C257.458 136.492 259.307 134.386 261.67 132.886C264.049 131.386 266.814 130.636 269.966 130.636C273.117 130.636 275.875 131.386 278.239 132.886C280.617 134.386 282.466 136.492 283.784 139.205C285.117 141.917 285.784 145.091 285.784 148.727C285.784 152.333 285.117 155.485 283.784 158.182C282.466 160.879 280.617 162.977 278.239 164.477C275.875 165.977 273.117 166.727 269.966 166.727ZM269.966 161.909C272.36 161.909 274.33 161.295 275.875 160.068C277.42 158.841 278.564 157.227 279.307 155.227C280.049 153.227 280.42 151.061 280.42 148.727C280.42 146.394 280.049 144.22 279.307 142.205C278.564 140.189 277.42 138.561 275.875 137.318C274.33 136.076 272.36 135.455 269.966 135.455C267.572 135.455 265.602 136.076 264.057 137.318C262.511 138.561 261.367 140.189 260.625 142.205C259.883 144.22 259.511 146.394 259.511 148.727C259.511 151.061 259.883 153.227 260.625 155.227C261.367 157.227 262.511 158.841 264.057 160.068C265.602 161.295 267.572 161.909 269.966 161.909ZM300.693 166L290.057 131.091H295.693L303.239 157.818H303.602L311.057 131.091H316.784L324.148 157.727H324.511L332.057 131.091H337.693L327.057 166H321.784L314.148 139.182H313.602L305.966 166H300.693ZM358.233 166.727C354.869 166.727 351.968 165.985 349.528 164.5C347.104 163 345.233 160.909 343.915 158.227C342.612 155.53 341.96 152.394 341.96 148.818C341.96 145.242 342.612 142.091 343.915 139.364C345.233 136.621 347.066 134.485 349.415 132.955C351.778 131.409 354.536 130.636 357.688 130.636C359.506 130.636 361.301 130.939 363.074 131.545C364.847 132.152 366.46 133.136 367.915 134.5C369.369 135.848 370.528 137.636 371.392 139.864C372.256 142.091 372.688 144.833 372.688 148.091V150.364H345.778V145.727H367.233C367.233 143.758 366.839 142 366.051 140.455C365.278 138.909 364.172 137.689 362.733 136.795C361.309 135.902 359.627 135.455 357.688 135.455C355.551 135.455 353.703 135.985 352.142 137.045C350.597 138.091 349.407 139.455 348.574 141.136C347.741 142.818 347.324 144.621 347.324 146.545V149.636C347.324 152.273 347.778 154.508 348.688 156.341C349.612 158.159 350.892 159.545 352.528 160.5C354.165 161.439 356.066 161.909 358.233 161.909C359.642 161.909 360.915 161.712 362.051 161.318C363.203 160.909 364.195 160.303 365.028 159.5C365.862 158.682 366.506 157.667 366.96 156.455L372.142 157.909C371.597 159.667 370.68 161.212 369.392 162.545C368.104 163.864 366.513 164.894 364.619 165.636C362.725 166.364 360.597 166.727 358.233 166.727ZM408.33 131.091L395.42 166H389.966L377.057 131.091H382.875L392.511 158.909H392.875L402.511 131.091H408.33ZM428.795 166.727C425.432 166.727 422.53 165.985 420.091 164.5C417.667 163 415.795 160.909 414.477 158.227C413.174 155.53 412.523 152.394 412.523 148.818C412.523 145.242 413.174 142.091 414.477 139.364C415.795 136.621 417.629 134.485 419.977 132.955C422.341 131.409 425.098 130.636 428.25 130.636C430.068 130.636 431.864 130.939 433.636 131.545C435.409 132.152 437.023 133.136 438.477 134.5C439.932 135.848 441.091 137.636 441.955 139.864C442.818 142.091 443.25 144.833 443.25 148.091V150.364H416.341V145.727H437.795C437.795 143.758 437.402 142 436.614 140.455C435.841 138.909 434.735 137.689 433.295 136.795C431.871 135.902 430.189 135.455 428.25 135.455C426.114 135.455 424.265 135.985 422.705 137.045C421.159 138.091 419.97 139.455 419.136 141.136C418.303 142.818 417.886 144.621 417.886 146.545V149.636C417.886 152.273 418.341 154.508 419.25 156.341C420.174 158.159 421.455 159.545 423.091 160.5C424.727 161.439 426.629 161.909 428.795 161.909C430.205 161.909 431.477 161.712 432.614 161.318C433.765 160.909 434.758 160.303 435.591 159.5C436.424 158.682 437.068 157.667 437.523 156.455L442.705 157.909C442.159 159.667 441.242 161.212 439.955 162.545C438.667 163.864 437.076 164.894 435.182 165.636C433.288 166.364 431.159 166.727 428.795 166.727ZM451.409 166V131.091H456.591V136.364H456.955C457.591 134.636 458.742 133.235 460.409 132.159C462.076 131.083 463.955 130.545 466.045 130.545C466.439 130.545 466.932 130.553 467.523 130.568C468.114 130.583 468.561 130.606 468.864 130.636V136.091C468.682 136.045 468.265 135.977 467.614 135.886C466.977 135.78 466.303 135.727 465.591 135.727C463.894 135.727 462.379 136.083 461.045 136.795C459.727 137.492 458.682 138.462 457.909 139.705C457.152 140.932 456.773 142.333 456.773 143.909V166H451.409ZM479.222 159.636L478.858 162.091C478.6 163.818 478.206 165.667 477.676 167.636C477.161 169.606 476.623 171.462 476.062 173.205C475.502 174.947 475.04 176.333 474.676 177.364H470.585C470.782 176.394 471.04 175.114 471.358 173.523C471.676 171.932 471.994 170.152 472.312 168.182C472.646 166.227 472.919 164.227 473.131 162.182L473.403 159.636H479.222ZM522.341 131.091V135.636H504.25V131.091H522.341ZM509.523 122.727H514.886V156C514.886 157.515 515.106 158.652 515.545 159.409C516 160.152 516.576 160.652 517.273 160.909C517.985 161.152 518.735 161.273 519.523 161.273C520.114 161.273 520.598 161.242 520.977 161.182C521.356 161.106 521.659 161.045 521.886 161L522.977 165.818C522.614 165.955 522.106 166.091 521.455 166.227C520.803 166.379 519.977 166.455 518.977 166.455C517.462 166.455 515.977 166.129 514.523 165.477C513.083 164.826 511.886 163.833 510.932 162.5C509.992 161.167 509.523 159.485 509.523 157.455V122.727ZM536.523 145V166H531.159V119.455H536.523V136.545H536.977C537.795 134.742 539.023 133.311 540.659 132.25C542.311 131.174 544.508 130.636 547.25 130.636C549.629 130.636 551.712 131.114 553.5 132.068C555.288 133.008 556.674 134.455 557.659 136.409C558.659 138.348 559.159 140.818 559.159 143.818V166H553.795V144.182C553.795 141.409 553.076 139.265 551.636 137.75C550.212 136.22 548.235 135.455 545.705 135.455C543.947 135.455 542.371 135.826 540.977 136.568C539.598 137.311 538.508 138.394 537.705 139.818C536.917 141.242 536.523 142.97 536.523 145ZM568.972 166V131.091H574.335V166H568.972ZM571.699 125.273C570.653 125.273 569.752 124.917 568.994 124.205C568.252 123.492 567.881 122.636 567.881 121.636C567.881 120.636 568.252 119.78 568.994 119.068C569.752 118.356 570.653 118 571.699 118C572.744 118 573.638 118.356 574.381 119.068C575.138 119.78 575.517 120.636 575.517 121.636C575.517 122.636 575.138 123.492 574.381 124.205C573.638 124.917 572.744 125.273 571.699 125.273ZM608.886 138.909L604.068 140.273C603.765 139.47 603.318 138.689 602.727 137.932C602.152 137.159 601.364 136.523 600.364 136.023C599.364 135.523 598.083 135.273 596.523 135.273C594.386 135.273 592.606 135.765 591.182 136.75C589.773 137.72 589.068 138.955 589.068 140.455C589.068 141.788 589.553 142.841 590.523 143.614C591.492 144.386 593.008 145.03 595.068 145.545L600.25 146.818C603.371 147.576 605.697 148.735 607.227 150.295C608.758 151.841 609.523 153.833 609.523 156.273C609.523 158.273 608.947 160.061 607.795 161.636C606.659 163.212 605.068 164.455 603.023 165.364C600.977 166.273 598.598 166.727 595.886 166.727C592.326 166.727 589.379 165.955 587.045 164.409C584.712 162.864 583.235 160.606 582.614 157.636L587.705 156.364C588.189 158.242 589.106 159.652 590.455 160.591C591.818 161.53 593.598 162 595.795 162C598.295 162 600.28 161.47 601.75 160.409C603.235 159.333 603.977 158.045 603.977 156.545C603.977 155.333 603.553 154.318 602.705 153.5C601.856 152.667 600.553 152.045 598.795 151.636L592.977 150.273C589.78 149.515 587.432 148.341 585.932 146.75C584.447 145.144 583.705 143.136 583.705 140.727C583.705 138.758 584.258 137.015 585.364 135.5C586.485 133.985 588.008 132.795 589.932 131.932C591.871 131.068 594.068 130.636 596.523 130.636C599.977 130.636 602.689 131.394 604.659 132.909C606.644 134.424 608.053 136.424 608.886 138.909ZM664.142 131.091L651.233 166H645.778L632.869 131.091H638.688L648.324 158.909H648.688L658.324 131.091H664.142ZM680.432 166.818C678.22 166.818 676.212 166.402 674.409 165.568C672.606 164.72 671.174 163.5 670.114 161.909C669.053 160.303 668.523 158.364 668.523 156.091C668.523 154.091 668.917 152.47 669.705 151.227C670.492 149.97 671.545 148.985 672.864 148.273C674.182 147.561 675.636 147.03 677.227 146.682C678.833 146.318 680.447 146.03 682.068 145.818C684.189 145.545 685.909 145.341 687.227 145.205C688.561 145.053 689.53 144.803 690.136 144.455C690.758 144.106 691.068 143.5 691.068 142.636V142.455C691.068 140.212 690.455 138.47 689.227 137.227C688.015 135.985 686.174 135.364 683.705 135.364C681.144 135.364 679.136 135.924 677.682 137.045C676.227 138.167 675.205 139.364 674.614 140.636L669.523 138.818C670.432 136.697 671.644 135.045 673.159 133.864C674.689 132.667 676.356 131.833 678.159 131.364C679.977 130.879 681.765 130.636 683.523 130.636C684.644 130.636 685.932 130.773 687.386 131.045C688.856 131.303 690.273 131.841 691.636 132.659C693.015 133.477 694.159 134.712 695.068 136.364C695.977 138.015 696.432 140.227 696.432 143V166H691.068V161.273H690.795C690.432 162.03 689.826 162.841 688.977 163.705C688.129 164.568 687 165.303 685.591 165.909C684.182 166.515 682.462 166.818 680.432 166.818ZM681.25 162C683.371 162 685.159 161.583 686.614 160.75C688.083 159.917 689.189 158.841 689.932 157.523C690.689 156.205 691.068 154.818 691.068 153.364V148.455C690.841 148.727 690.341 148.977 689.568 149.205C688.811 149.417 687.932 149.606 686.932 149.773C685.947 149.924 684.985 150.061 684.045 150.182C683.121 150.288 682.371 150.379 681.795 150.455C680.402 150.636 679.098 150.932 677.886 151.341C676.689 151.735 675.72 152.333 674.977 153.136C674.25 153.924 673.886 155 673.886 156.364C673.886 158.227 674.576 159.636 675.955 160.591C677.348 161.53 679.114 162 681.25 162ZM711.585 119.455V166H706.222V119.455H711.585ZM743.409 151.727V131.091H748.773V166H743.409V160.091H743.045C742.227 161.864 740.955 163.371 739.227 164.614C737.5 165.841 735.318 166.455 732.682 166.455C730.5 166.455 728.561 165.977 726.864 165.023C725.167 164.053 723.833 162.598 722.864 160.659C721.894 158.705 721.409 156.242 721.409 153.273V131.091H726.773V152.909C726.773 155.455 727.485 157.485 728.909 159C730.348 160.515 732.182 161.273 734.409 161.273C735.742 161.273 737.098 160.932 738.477 160.25C739.871 159.568 741.038 158.523 741.977 157.114C742.932 155.705 743.409 153.909 743.409 151.727ZM768.869 166.818C766.657 166.818 764.65 166.402 762.847 165.568C761.044 164.72 759.612 163.5 758.551 161.909C757.491 160.303 756.96 158.364 756.96 156.091C756.96 154.091 757.354 152.47 758.142 151.227C758.93 149.97 759.983 148.985 761.301 148.273C762.619 147.561 764.074 147.03 765.665 146.682C767.271 146.318 768.884 146.03 770.506 145.818C772.627 145.545 774.347 145.341 775.665 145.205C776.998 145.053 777.968 144.803 778.574 144.455C779.195 144.106 779.506 143.5 779.506 142.636V142.455C779.506 140.212 778.892 138.47 777.665 137.227C776.453 135.985 774.612 135.364 772.142 135.364C769.581 135.364 767.574 135.924 766.119 137.045C764.665 138.167 763.642 139.364 763.051 140.636L757.96 138.818C758.869 136.697 760.081 135.045 761.597 133.864C763.127 132.667 764.794 131.833 766.597 131.364C768.415 130.879 770.203 130.636 771.96 130.636C773.081 130.636 774.369 130.773 775.824 131.045C777.294 131.303 778.71 131.841 780.074 132.659C781.453 133.477 782.597 134.712 783.506 136.364C784.415 138.015 784.869 140.227 784.869 143V166H779.506V161.273H779.233C778.869 162.03 778.263 162.841 777.415 163.705C776.566 164.568 775.438 165.303 774.028 165.909C772.619 166.515 770.9 166.818 768.869 166.818ZM769.688 162C771.809 162 773.597 161.583 775.051 160.75C776.521 159.917 777.627 158.841 778.369 157.523C779.127 156.205 779.506 154.818 779.506 153.364V148.455C779.278 148.727 778.778 148.977 778.006 149.205C777.248 149.417 776.369 149.606 775.369 149.773C774.384 149.924 773.422 150.061 772.483 150.182C771.559 150.288 770.809 150.379 770.233 150.455C768.839 150.636 767.536 150.932 766.324 151.341C765.127 151.735 764.157 152.333 763.415 153.136C762.688 153.924 762.324 155 762.324 156.364C762.324 158.227 763.013 159.636 764.392 160.591C765.786 161.53 767.551 162 769.688 162ZM795.386 166V119.455H800.75V136.636H801.205C801.598 136.03 802.144 135.258 802.841 134.318C803.553 133.364 804.568 132.515 805.886 131.773C807.22 131.015 809.023 130.636 811.295 130.636C814.235 130.636 816.826 131.371 819.068 132.841C821.311 134.311 823.061 136.394 824.318 139.091C825.576 141.788 826.205 144.97 826.205 148.636C826.205 152.333 825.576 155.538 824.318 158.25C823.061 160.947 821.318 163.038 819.091 164.523C816.864 165.992 814.295 166.727 811.386 166.727C809.144 166.727 807.348 166.356 806 165.614C804.652 164.856 803.614 164 802.886 163.045C802.159 162.076 801.598 161.273 801.205 160.636H800.568V166H795.386ZM800.659 148.545C800.659 151.182 801.045 153.508 801.818 155.523C802.591 157.523 803.72 159.091 805.205 160.227C806.689 161.348 808.508 161.909 810.659 161.909C812.902 161.909 814.773 161.318 816.273 160.136C817.788 158.939 818.924 157.333 819.682 155.318C820.455 153.288 820.841 151.03 820.841 148.545C820.841 146.091 820.462 143.879 819.705 141.909C818.962 139.924 817.833 138.356 816.318 137.205C814.818 136.038 812.932 135.455 810.659 135.455C808.477 135.455 806.644 136.008 805.159 137.114C803.674 138.205 802.553 139.735 801.795 141.705C801.038 143.659 800.659 145.939 800.659 148.545ZM839.773 119.455V166H834.409V119.455H839.773ZM864.233 166.727C860.869 166.727 857.968 165.985 855.528 164.5C853.104 163 851.233 160.909 849.915 158.227C848.612 155.53 847.96 152.394 847.96 148.818C847.96 145.242 848.612 142.091 849.915 139.364C851.233 136.621 853.066 134.485 855.415 132.955C857.778 131.409 860.536 130.636 863.688 130.636C865.506 130.636 867.301 130.939 869.074 131.545C870.847 132.152 872.46 133.136 873.915 134.5C875.369 135.848 876.528 137.636 877.392 139.864C878.256 142.091 878.688 144.833 878.688 148.091V150.364H851.778V145.727H873.233C873.233 143.758 872.839 142 872.051 140.455C871.278 138.909 870.172 137.689 868.733 136.795C867.309 135.902 865.627 135.455 863.688 135.455C861.551 135.455 859.703 135.985 858.142 137.045C856.597 138.091 855.407 139.455 854.574 141.136C853.741 142.818 853.324 144.621 853.324 146.545V149.636C853.324 152.273 853.778 154.508 854.688 156.341C855.612 158.159 856.892 159.545 858.528 160.5C860.165 161.439 862.066 161.909 864.233 161.909C865.642 161.909 866.915 161.712 868.051 161.318C869.203 160.909 870.195 160.303 871.028 159.5C871.862 158.682 872.506 157.667 872.96 156.455L878.142 157.909C877.597 159.667 876.68 161.212 875.392 162.545C874.104 163.864 872.513 164.894 870.619 165.636C868.725 166.364 866.597 166.727 864.233 166.727ZM910.21 119.455V166H904.847V119.455H910.21ZM930.307 166.818C928.095 166.818 926.087 166.402 924.284 165.568C922.481 164.72 921.049 163.5 919.989 161.909C918.928 160.303 918.398 158.364 918.398 156.091C918.398 154.091 918.792 152.47 919.58 151.227C920.367 149.97 921.42 148.985 922.739 148.273C924.057 147.561 925.511 147.03 927.102 146.682C928.708 146.318 930.322 146.03 931.943 145.818C934.064 145.545 935.784 145.341 937.102 145.205C938.436 145.053 939.405 144.803 940.011 144.455C940.633 144.106 940.943 143.5 940.943 142.636V142.455C940.943 140.212 940.33 138.47 939.102 137.227C937.89 135.985 936.049 135.364 933.58 135.364C931.019 135.364 929.011 135.924 927.557 137.045C926.102 138.167 925.08 139.364 924.489 140.636L919.398 138.818C920.307 136.697 921.519 135.045 923.034 133.864C924.564 132.667 926.231 131.833 928.034 131.364C929.852 130.879 931.64 130.636 933.398 130.636C934.519 130.636 935.807 130.773 937.261 131.045C938.731 131.303 940.148 131.841 941.511 132.659C942.89 133.477 944.034 134.712 944.943 136.364C945.852 138.015 946.307 140.227 946.307 143V166H940.943V161.273H940.67C940.307 162.03 939.701 162.841 938.852 163.705C938.004 164.568 936.875 165.303 935.466 165.909C934.057 166.515 932.337 166.818 930.307 166.818ZM931.125 162C933.246 162 935.034 161.583 936.489 160.75C937.958 159.917 939.064 158.841 939.807 157.523C940.564 156.205 940.943 154.818 940.943 153.364V148.455C940.716 148.727 940.216 148.977 939.443 149.205C938.686 149.417 937.807 149.606 936.807 149.773C935.822 149.924 934.86 150.061 933.92 150.182C932.996 150.288 932.246 150.379 931.67 150.455C930.277 150.636 928.973 150.932 927.761 151.341C926.564 151.735 925.595 152.333 924.852 153.136C924.125 153.924 923.761 155 923.761 156.364C923.761 158.227 924.451 159.636 925.83 160.591C927.223 161.53 928.989 162 931.125 162ZM961.46 145V166H956.097V131.091H961.278V136.545H961.733C962.551 134.773 963.794 133.348 965.46 132.273C967.127 131.182 969.278 130.636 971.915 130.636C974.278 130.636 976.347 131.121 978.119 132.091C979.892 133.045 981.271 134.5 982.256 136.455C983.241 138.394 983.733 140.848 983.733 143.818V166H978.369V144.182C978.369 141.439 977.657 139.303 976.233 137.773C974.809 136.227 972.854 135.455 970.369 135.455C968.657 135.455 967.127 135.826 965.778 136.568C964.445 137.311 963.392 138.394 962.619 139.818C961.847 141.242 961.46 142.97 961.46 145ZM1006.72 166.727C1003.81 166.727 1001.24 165.992 999.011 164.523C996.784 163.038 995.042 160.947 993.784 158.25C992.527 155.538 991.898 152.333 991.898 148.636C991.898 144.97 992.527 141.788 993.784 139.091C995.042 136.394 996.792 134.311 999.034 132.841C1001.28 131.371 1003.87 130.636 1006.81 130.636C1009.08 130.636 1010.88 131.015 1012.19 131.773C1013.53 132.515 1014.54 133.364 1015.24 134.318C1015.95 135.258 1016.5 136.03 1016.9 136.636H1017.35V119.455H1022.72V166H1017.53V160.636H1016.9C1016.5 161.273 1015.94 162.076 1015.22 163.045C1014.49 164 1013.45 164.856 1012.1 165.614C1010.75 166.356 1008.96 166.727 1006.72 166.727ZM1007.44 161.909C1009.59 161.909 1011.41 161.348 1012.9 160.227C1014.38 159.091 1015.51 157.523 1016.28 155.523C1017.06 153.508 1017.44 151.182 1017.44 148.545C1017.44 145.939 1017.06 143.659 1016.31 141.705C1015.55 139.735 1014.43 138.205 1012.94 137.114C1011.46 136.008 1009.63 135.455 1007.44 135.455C1005.17 135.455 1003.28 136.038 1001.76 137.205C1000.26 138.356 999.133 139.924 998.375 141.909C997.633 143.879 997.261 146.091 997.261 148.545C997.261 151.03 997.64 153.288 998.398 155.318C999.17 157.333 1000.31 158.939 1001.81 160.136C1003.32 161.318 1005.2 161.909 1007.44 161.909ZM1048.83 131.091V135.636H1030.01V131.091H1048.83ZM1035.65 166V126.273C1035.65 124.273 1036.12 122.606 1037.06 121.273C1038 119.939 1039.22 118.939 1040.72 118.273C1042.22 117.606 1043.8 117.273 1045.47 117.273C1046.78 117.273 1047.86 117.379 1048.69 117.591C1049.53 117.803 1050.15 118 1050.56 118.182L1049.01 122.818C1048.74 122.727 1048.36 122.614 1047.88 122.477C1047.41 122.341 1046.78 122.273 1046.01 122.273C1044.24 122.273 1042.96 122.72 1042.17 123.614C1041.4 124.508 1041.01 125.818 1041.01 127.545V166H1035.65ZM1056.35 166V131.091H1061.71V166H1056.35ZM1059.07 125.273C1058.03 125.273 1057.13 124.917 1056.37 124.205C1055.63 123.492 1055.26 122.636 1055.26 121.636C1055.26 120.636 1055.63 119.78 1056.37 119.068C1057.13 118.356 1058.03 118 1059.07 118C1060.12 118 1061.01 118.356 1061.76 119.068C1062.51 119.78 1062.89 120.636 1062.89 121.636C1062.89 122.636 1062.51 123.492 1061.76 124.205C1061.01 124.917 1060.12 125.273 1059.07 125.273ZM1076.9 119.455V166H1071.53V119.455H1076.9ZM1092.09 119.455V166H1086.72V119.455H1092.09ZM208.409 243V208.091H213.773V243H208.409ZM211.136 202.273C210.091 202.273 209.189 201.917 208.432 201.205C207.689 200.492 207.318 199.636 207.318 198.636C207.318 197.636 207.689 196.78 208.432 196.068C209.189 195.356 210.091 195 211.136 195C212.182 195 213.076 195.356 213.818 196.068C214.576 196.78 214.955 197.636 214.955 198.636C214.955 199.636 214.576 200.492 213.818 201.205C213.076 201.917 212.182 202.273 211.136 202.273ZM248.324 215.909L243.506 217.273C243.203 216.47 242.756 215.689 242.165 214.932C241.589 214.159 240.801 213.523 239.801 213.023C238.801 212.523 237.521 212.273 235.96 212.273C233.824 212.273 232.044 212.765 230.619 213.75C229.21 214.72 228.506 215.955 228.506 217.455C228.506 218.788 228.991 219.841 229.96 220.614C230.93 221.386 232.445 222.03 234.506 222.545L239.688 223.818C242.809 224.576 245.134 225.735 246.665 227.295C248.195 228.841 248.96 230.833 248.96 233.273C248.96 235.273 248.384 237.061 247.233 238.636C246.097 240.212 244.506 241.455 242.46 242.364C240.415 243.273 238.036 243.727 235.324 243.727C231.763 243.727 228.816 242.955 226.483 241.409C224.15 239.864 222.672 237.606 222.051 234.636L227.142 233.364C227.627 235.242 228.544 236.652 229.892 237.591C231.256 238.53 233.036 239 235.233 239C237.733 239 239.718 238.47 241.188 237.409C242.672 236.333 243.415 235.045 243.415 233.545C243.415 232.333 242.991 231.318 242.142 230.5C241.294 229.667 239.991 229.045 238.233 228.636L232.415 227.273C229.218 226.515 226.869 225.341 225.369 223.75C223.884 222.144 223.142 220.136 223.142 217.727C223.142 215.758 223.695 214.015 224.801 212.5C225.922 210.985 227.445 209.795 229.369 208.932C231.309 208.068 233.506 207.636 235.96 207.636C239.415 207.636 242.127 208.394 244.097 209.909C246.081 211.424 247.491 213.424 248.324 215.909ZM273.989 243V208.091H283.67V243H273.989ZM278.852 203.591C277.413 203.591 276.178 203.114 275.148 202.159C274.133 201.189 273.625 200.03 273.625 198.682C273.625 197.348 274.133 196.205 275.148 195.25C276.178 194.28 277.413 193.795 278.852 193.795C280.292 193.795 281.519 194.28 282.534 195.25C283.564 196.205 284.08 197.348 284.08 198.682C284.08 200.03 283.564 201.189 282.534 202.159C281.519 203.114 280.292 203.591 278.852 203.591ZM301.108 222.818V243H291.426V208.091H300.653V214.25H301.062C301.835 212.22 303.131 210.614 304.949 209.432C306.767 208.235 308.972 207.636 311.562 207.636C313.987 207.636 316.1 208.167 317.903 209.227C319.706 210.288 321.108 211.803 322.108 213.773C323.108 215.727 323.608 218.061 323.608 220.773V243H313.926V222.5C313.941 220.364 313.396 218.697 312.29 217.5C311.184 216.288 309.661 215.682 307.722 215.682C306.419 215.682 305.267 215.962 304.267 216.523C303.282 217.083 302.509 217.902 301.949 218.977C301.403 220.038 301.123 221.318 301.108 222.818ZM361.824 243.682C358.248 243.682 355.172 242.924 352.597 241.409C350.036 239.879 348.066 237.758 346.688 235.045C345.324 232.333 344.642 229.212 344.642 225.682C344.642 222.106 345.331 218.97 346.71 216.273C348.104 213.561 350.081 211.447 352.642 209.932C355.203 208.402 358.248 207.636 361.778 207.636C364.824 207.636 367.491 208.189 369.778 209.295C372.066 210.402 373.877 211.955 375.21 213.955C376.544 215.955 377.278 218.303 377.415 221H368.278C368.021 219.258 367.339 217.856 366.233 216.795C365.142 215.72 363.71 215.182 361.938 215.182C360.438 215.182 359.127 215.591 358.006 216.409C356.9 217.212 356.036 218.386 355.415 219.932C354.794 221.477 354.483 223.348 354.483 225.545C354.483 227.773 354.786 229.667 355.392 231.227C356.013 232.788 356.884 233.977 358.006 234.795C359.127 235.614 360.438 236.023 361.938 236.023C363.044 236.023 364.036 235.795 364.915 235.341C365.809 234.886 366.544 234.227 367.119 233.364C367.71 232.485 368.097 231.432 368.278 230.205H377.415C377.263 232.871 376.536 235.22 375.233 237.25C373.945 239.265 372.165 240.841 369.892 241.977C367.619 243.114 364.93 243.682 361.824 243.682ZM383.614 243V208.091H393V214.182H393.364C394 212.015 395.068 210.379 396.568 209.273C398.068 208.152 399.795 207.591 401.75 207.591C402.235 207.591 402.758 207.621 403.318 207.682C403.879 207.742 404.371 207.826 404.795 207.932V216.523C404.341 216.386 403.712 216.265 402.909 216.159C402.106 216.053 401.371 216 400.705 216C399.28 216 398.008 216.311 396.886 216.932C395.78 217.538 394.902 218.386 394.25 219.477C393.614 220.568 393.295 221.826 393.295 223.25V243H383.614ZM409.801 243V208.091H419.483V243H409.801ZM414.665 203.591C413.225 203.591 411.991 203.114 410.96 202.159C409.945 201.189 409.438 200.03 409.438 198.682C409.438 197.348 409.945 196.205 410.96 195.25C411.991 194.28 413.225 193.795 414.665 193.795C416.104 193.795 417.331 194.28 418.347 195.25C419.377 196.205 419.892 197.348 419.892 198.682C419.892 200.03 419.377 201.189 418.347 202.159C417.331 203.114 416.104 203.591 414.665 203.591ZM456.284 218.045L447.42 218.591C447.269 217.833 446.943 217.152 446.443 216.545C445.943 215.924 445.284 215.432 444.466 215.068C443.663 214.689 442.701 214.5 441.58 214.5C440.08 214.5 438.814 214.818 437.784 215.455C436.754 216.076 436.239 216.909 436.239 217.955C436.239 218.788 436.572 219.492 437.239 220.068C437.905 220.644 439.049 221.106 440.67 221.455L446.989 222.727C450.383 223.424 452.913 224.545 454.58 226.091C456.246 227.636 457.08 229.667 457.08 232.182C457.08 234.47 456.405 236.477 455.057 238.205C453.723 239.932 451.89 241.28 449.557 242.25C447.239 243.205 444.564 243.682 441.534 243.682C436.913 243.682 433.231 242.72 430.489 240.795C427.761 238.856 426.163 236.22 425.693 232.886L435.216 232.386C435.504 233.795 436.201 234.871 437.307 235.614C438.413 236.341 439.83 236.705 441.557 236.705C443.254 236.705 444.617 236.379 445.648 235.727C446.693 235.061 447.223 234.205 447.239 233.159C447.223 232.28 446.852 231.561 446.125 231C445.398 230.424 444.277 229.985 442.761 229.682L436.716 228.477C433.307 227.795 430.769 226.614 429.102 224.932C427.451 223.25 426.625 221.106 426.625 218.5C426.625 216.258 427.231 214.326 428.443 212.705C429.67 211.083 431.39 209.833 433.602 208.955C435.83 208.076 438.436 207.636 441.42 207.636C445.83 207.636 449.299 208.568 451.83 210.432C454.375 212.295 455.86 214.833 456.284 218.045ZM463.176 243V208.091H472.858V243H463.176ZM468.04 203.591C466.6 203.591 465.366 203.114 464.335 202.159C463.32 201.189 462.812 200.03 462.812 198.682C462.812 197.348 463.32 196.205 464.335 195.25C465.366 194.28 466.6 193.795 468.04 193.795C469.479 193.795 470.706 194.28 471.722 195.25C472.752 196.205 473.267 197.348 473.267 198.682C473.267 200.03 472.752 201.189 471.722 202.159C470.706 203.114 469.479 203.591 468.04 203.591ZM509.659 218.045L500.795 218.591C500.644 217.833 500.318 217.152 499.818 216.545C499.318 215.924 498.659 215.432 497.841 215.068C497.038 214.689 496.076 214.5 494.955 214.5C493.455 214.5 492.189 214.818 491.159 215.455C490.129 216.076 489.614 216.909 489.614 217.955C489.614 218.788 489.947 219.492 490.614 220.068C491.28 220.644 492.424 221.106 494.045 221.455L500.364 222.727C503.758 223.424 506.288 224.545 507.955 226.091C509.621 227.636 510.455 229.667 510.455 232.182C510.455 234.47 509.78 236.477 508.432 238.205C507.098 239.932 505.265 241.28 502.932 242.25C500.614 243.205 497.939 243.682 494.909 243.682C490.288 243.682 486.606 242.72 483.864 240.795C481.136 238.856 479.538 236.22 479.068 232.886L488.591 232.386C488.879 233.795 489.576 234.871 490.682 235.614C491.788 236.341 493.205 236.705 494.932 236.705C496.629 236.705 497.992 236.379 499.023 235.727C500.068 235.061 500.598 234.205 500.614 233.159C500.598 232.28 500.227 231.561 499.5 231C498.773 230.424 497.652 229.985 496.136 229.682L490.091 228.477C486.682 227.795 484.144 226.614 482.477 224.932C480.826 223.25 480 221.106 480 218.5C480 216.258 480.606 214.326 481.818 212.705C483.045 211.083 484.765 209.833 486.977 208.955C489.205 208.076 491.811 207.636 494.795 207.636C499.205 207.636 502.674 208.568 505.205 210.432C507.75 212.295 509.235 214.833 509.659 218.045ZM540.96 222V243H535.597V208.091H540.778V213.545H541.233C542.051 211.773 543.294 210.348 544.96 209.273C546.627 208.182 548.778 207.636 551.415 207.636C553.778 207.636 555.847 208.121 557.619 209.091C559.392 210.045 560.771 211.5 561.756 213.455C562.741 215.394 563.233 217.848 563.233 220.818V243H557.869V221.182C557.869 218.439 557.157 216.303 555.733 214.773C554.309 213.227 552.354 212.455 549.869 212.455C548.157 212.455 546.627 212.826 545.278 213.568C543.945 214.311 542.892 215.394 542.119 216.818C541.347 218.242 540.96 219.97 540.96 222ZM587.216 243.727C584.064 243.727 581.299 242.977 578.92 241.477C576.557 239.977 574.708 237.879 573.375 235.182C572.057 232.485 571.398 229.333 571.398 225.727C571.398 222.091 572.057 218.917 573.375 216.205C574.708 213.492 576.557 211.386 578.92 209.886C581.299 208.386 584.064 207.636 587.216 207.636C590.367 207.636 593.125 208.386 595.489 209.886C597.867 211.386 599.716 213.492 601.034 216.205C602.367 218.917 603.034 222.091 603.034 225.727C603.034 229.333 602.367 232.485 601.034 235.182C599.716 237.879 597.867 239.977 595.489 241.477C593.125 242.977 590.367 243.727 587.216 243.727ZM587.216 238.909C589.61 238.909 591.58 238.295 593.125 237.068C594.67 235.841 595.814 234.227 596.557 232.227C597.299 230.227 597.67 228.061 597.67 225.727C597.67 223.394 597.299 221.22 596.557 219.205C595.814 217.189 594.67 215.561 593.125 214.318C591.58 213.076 589.61 212.455 587.216 212.455C584.822 212.455 582.852 213.076 581.307 214.318C579.761 215.561 578.617 217.189 577.875 219.205C577.133 221.22 576.761 223.394 576.761 225.727C576.761 228.061 577.133 230.227 577.875 232.227C578.617 234.227 579.761 235.841 581.307 237.068C582.852 238.295 584.822 238.909 587.216 238.909ZM617.943 243L607.307 208.091H612.943L620.489 234.818H620.852L628.307 208.091H634.034L641.398 234.727H641.761L649.307 208.091H654.943L644.307 243H639.034L631.398 216.182H630.852L623.216 243H617.943ZM661.193 243.364C660.072 243.364 659.11 242.962 658.307 242.159C657.504 241.356 657.102 240.394 657.102 239.273C657.102 238.152 657.504 237.189 658.307 236.386C659.11 235.583 660.072 235.182 661.193 235.182C662.314 235.182 663.277 235.583 664.08 236.386C664.883 237.189 665.284 238.152 665.284 239.273C665.284 240.015 665.095 240.697 664.716 241.318C664.352 241.939 663.86 242.439 663.239 242.818C662.633 243.182 661.951 243.364 661.193 243.364Z" fill="black" fill-opacity="0.97" shape-rendering="crispEdges"/>
</g>
<rect x="40" y="8" width="103.094" height="26" rx="2" fill="#DCDBD2"/>
<rect x="40.5" y="8.5" width="102.094" height="25" rx="1.5" stroke="black" stroke-opacity="0.14902"/>
<path d="M44.9688 24V16H45.9375V19.5625H50.2031V16H51.1719V24H50.2031V20.4219H45.9375V24H44.9688ZM55.502 24.125C54.9238 24.125 54.4251 23.9974 54.0059 23.7422C53.5892 23.4844 53.2676 23.125 53.041 22.6641C52.8171 22.2005 52.7051 21.6615 52.7051 21.0469C52.7051 20.4323 52.8171 19.8906 53.041 19.4219C53.2676 18.9505 53.5827 18.5833 53.9863 18.3203C54.3926 18.0547 54.8665 17.9219 55.4082 17.9219C55.7207 17.9219 56.0293 17.974 56.334 18.0781C56.6387 18.1823 56.916 18.3516 57.166 18.5859C57.416 18.8177 57.6152 19.125 57.7637 19.5078C57.9121 19.8906 57.9863 20.362 57.9863 20.9219V21.3125H53.3613V20.5156H57.0488C57.0488 20.1771 56.9811 19.875 56.8457 19.6094C56.7129 19.3437 56.5228 19.1341 56.2754 18.9805C56.0306 18.8268 55.7415 18.75 55.4082 18.75C55.041 18.75 54.7233 18.8411 54.4551 19.0234C54.1895 19.2031 53.985 19.4375 53.8418 19.7266C53.6986 20.0156 53.627 20.3255 53.627 20.6562V21.1875C53.627 21.6406 53.7051 22.0247 53.8613 22.3398C54.0202 22.6523 54.2402 22.8906 54.5215 23.0547C54.8027 23.2161 55.1296 23.2969 55.502 23.2969C55.7441 23.2969 55.9629 23.263 56.1582 23.1953C56.3561 23.125 56.5267 23.0208 56.6699 22.8828C56.8132 22.7422 56.9238 22.5677 57.002 22.3594L57.8926 22.6094C57.7988 22.9115 57.6413 23.1771 57.4199 23.4062C57.1986 23.6328 56.9251 23.8099 56.5996 23.9375C56.2741 24.0625 55.9082 24.125 55.502 24.125ZM59.3887 24V18H60.2793V18.9062H60.3418C60.4512 18.6094 60.6491 18.3685 60.9355 18.1836C61.222 17.9987 61.5449 17.9062 61.9043 17.9062C61.972 17.9062 62.0566 17.9076 62.1582 17.9102C62.2598 17.9128 62.3366 17.9167 62.3887 17.9219V18.8594C62.3574 18.8516 62.2858 18.8398 62.1738 18.8242C62.0645 18.806 61.9486 18.7969 61.8262 18.7969C61.5345 18.7969 61.2741 18.8581 61.0449 18.9805C60.8184 19.1003 60.6387 19.2669 60.5059 19.4805C60.3757 19.6914 60.3105 19.9323 60.3105 20.2031V24H59.3887ZM65.7363 24.125C65.1947 24.125 64.7194 23.9961 64.3105 23.7383C63.9043 23.4805 63.5866 23.1198 63.3574 22.6562C63.1309 22.1927 63.0176 21.651 63.0176 21.0312C63.0176 20.4062 63.1309 19.8607 63.3574 19.3945C63.5866 18.9284 63.9043 18.5664 64.3105 18.3086C64.7194 18.0508 65.1947 17.9219 65.7363 17.9219C66.278 17.9219 66.752 18.0508 67.1582 18.3086C67.5671 18.5664 67.8848 18.9284 68.1113 19.3945C68.3405 19.8607 68.4551 20.4062 68.4551 21.0312C68.4551 21.651 68.3405 22.1927 68.1113 22.6562C67.8848 23.1198 67.5671 23.4805 67.1582 23.7383C66.752 23.9961 66.278 24.125 65.7363 24.125ZM65.7363 23.2969C66.1478 23.2969 66.4863 23.1914 66.752 22.9805C67.0176 22.7695 67.2142 22.4922 67.3418 22.1484C67.4694 21.8047 67.5332 21.4323 67.5332 21.0312C67.5332 20.6302 67.4694 20.2565 67.3418 19.9102C67.2142 19.5638 67.0176 19.2839 66.752 19.0703C66.4863 18.8568 66.1478 18.75 65.7363 18.75C65.3249 18.75 64.9863 18.8568 64.7207 19.0703C64.4551 19.2839 64.2585 19.5638 64.1309 19.9102C64.0033 20.2565 63.9395 20.6302 63.9395 21.0312C63.9395 21.4323 64.0033 21.8047 64.1309 22.1484C64.2585 22.4922 64.4551 22.7695 64.7207 22.9805C64.9863 23.1914 65.3249 23.2969 65.7363 23.2969ZM73.0811 24V16H74.0498V19.5625H78.3154V16H79.2842V24H78.3154V20.4219H74.0498V24H73.0811ZM83.6143 24.125C83.0361 24.125 82.5374 23.9974 82.1182 23.7422C81.7015 23.4844 81.3799 23.125 81.1533 22.6641C80.9294 22.2005 80.8174 21.6615 80.8174 21.0469C80.8174 20.4323 80.9294 19.8906 81.1533 19.4219C81.3799 18.9505 81.695 18.5833 82.0986 18.3203C82.5049 18.0547 82.9788 17.9219 83.5205 17.9219C83.833 17.9219 84.1416 17.974 84.4463 18.0781C84.751 18.1823 85.0283 18.3516 85.2783 18.5859C85.5283 18.8177 85.7275 19.125 85.876 19.5078C86.0244 19.8906 86.0986 20.362 86.0986 20.9219V21.3125H81.4736V20.5156H85.1611C85.1611 20.1771 85.0934 19.875 84.958 19.6094C84.8252 19.3437 84.6351 19.1341 84.3877 18.9805C84.1429 18.8268 83.8538 18.75 83.5205 18.75C83.1533 18.75 82.8356 18.8411 82.5674 19.0234C82.3018 19.2031 82.0973 19.4375 81.9541 19.7266C81.8109 20.0156 81.7393 20.3255 81.7393 20.6562V21.1875C81.7393 21.6406 81.8174 22.0247 81.9736 22.3398C82.1325 22.6523 82.3525 22.8906 82.6338 23.0547C82.915 23.2161 83.2419 23.2969 83.6143 23.2969C83.8564 23.2969 84.0752 23.263 84.2705 23.1953C84.4684 23.125 84.639 23.0208 84.7822 22.8828C84.9255 22.7422 85.0361 22.5677 85.1143 22.3594L86.0049 22.6094C85.9111 22.9115 85.7536 23.1771 85.5322 23.4062C85.3109 23.6328 85.0374 23.8099 84.7119 23.9375C84.3864 24.0625 84.0205 24.125 83.6143 24.125ZM89.2666 24.1406C88.8864 24.1406 88.5413 24.069 88.2314 23.9258C87.9215 23.7799 87.6755 23.5703 87.4932 23.2969C87.3109 23.0208 87.2197 22.6875 87.2197 22.2969C87.2197 21.9531 87.2874 21.6745 87.4229 21.4609C87.5583 21.2448 87.7393 21.0755 87.9658 20.9531C88.1924 20.8307 88.4424 20.7396 88.7158 20.6797C88.9919 20.6172 89.2692 20.5677 89.5479 20.5313C89.9124 20.4844 90.208 20.4492 90.4346 20.4258C90.6637 20.3997 90.8304 20.3568 90.9346 20.2969C91.0413 20.237 91.0947 20.1328 91.0947 19.9844V19.9531C91.0947 19.5677 90.9893 19.2682 90.7783 19.0547C90.57 18.8411 90.2536 18.7344 89.8291 18.7344C89.389 18.7344 89.0439 18.8307 88.7939 19.0234C88.5439 19.2161 88.3682 19.4219 88.2666 19.6406L87.3916 19.3281C87.5479 18.9635 87.7562 18.6797 88.0166 18.4766C88.2796 18.2708 88.5661 18.1276 88.876 18.0469C89.1885 17.9635 89.4958 17.9219 89.7979 17.9219C89.9906 17.9219 90.2119 17.9453 90.4619 17.9922C90.7145 18.0365 90.958 18.1289 91.1924 18.2695C91.4294 18.4102 91.626 18.6224 91.7822 18.9062C91.9385 19.1901 92.0166 19.5703 92.0166 20.0469V24H91.0947V23.1875H91.0479C90.9854 23.3177 90.8812 23.457 90.7354 23.6055C90.5895 23.7539 90.3955 23.8802 90.1533 23.9844C89.9111 24.0885 89.6156 24.1406 89.2666 24.1406ZM89.4072 23.3125C89.7718 23.3125 90.0791 23.2409 90.3291 23.0977C90.5817 22.9544 90.7718 22.7695 90.8994 22.543C91.0296 22.3164 91.0947 22.0781 91.0947 21.8281V20.9844C91.0557 21.0312 90.9697 21.0742 90.8369 21.1133C90.7067 21.1497 90.5557 21.1823 90.3838 21.2109C90.2145 21.237 90.0492 21.2604 89.8877 21.2812C89.7288 21.2995 89.5999 21.3151 89.501 21.3281C89.2614 21.3594 89.0374 21.4102 88.8291 21.4805C88.6234 21.5482 88.4567 21.651 88.3291 21.7891C88.2041 21.9245 88.1416 22.1094 88.1416 22.3437C88.1416 22.6641 88.2601 22.9062 88.4971 23.0703C88.7367 23.2318 89.04 23.3125 89.4072 23.3125ZM95.9648 24.125C95.4648 24.125 95.0234 23.9987 94.6406 23.7461C94.2578 23.4909 93.9583 23.1315 93.7422 22.668C93.526 22.2018 93.418 21.651 93.418 21.0156C93.418 20.3854 93.526 19.8385 93.7422 19.375C93.9583 18.9115 94.2591 18.5534 94.6445 18.3008C95.0299 18.0482 95.4753 17.9219 95.9805 17.9219C96.3711 17.9219 96.6797 17.987 96.9063 18.1172C97.1354 18.2448 97.3099 18.3906 97.4297 18.5547C97.5521 18.7161 97.6471 18.849 97.7148 18.9531H97.793V16H98.7148V24H97.8242V23.0781H97.7148C97.6471 23.1875 97.5508 23.3255 97.4258 23.4922C97.3008 23.6562 97.1224 23.8034 96.8906 23.9336C96.6589 24.0612 96.3503 24.125 95.9648 24.125ZM96.0898 23.2969C96.4596 23.2969 96.7721 23.2005 97.0273 23.0078C97.2826 22.8125 97.4766 22.543 97.6094 22.1992C97.7422 21.8529 97.8086 21.4531 97.8086 21C97.8086 20.5521 97.7435 20.1602 97.6133 19.8242C97.4831 19.4857 97.2904 19.2227 97.0352 19.0352C96.7799 18.8451 96.4648 18.75 96.0898 18.75C95.6992 18.75 95.3737 18.8503 95.1133 19.0508C94.8555 19.2487 94.6615 19.5182 94.5312 19.8594C94.4036 20.1979 94.3398 20.5781 94.3398 21C94.3398 21.4271 94.4049 21.8151 94.5352 22.1641C94.668 22.5104 94.8633 22.7865 95.1211 22.9922C95.3815 23.1953 95.7044 23.2969 96.0898 23.2969ZM100.531 24V18H101.453V24H100.531ZM101 17C100.82 17 100.665 16.9388 100.535 16.8164C100.408 16.694 100.344 16.5469 100.344 16.375C100.344 16.2031 100.408 16.056 100.535 15.9336C100.665 15.8112 100.82 15.75 101 15.75C101.18 15.75 101.333 15.8112 101.461 15.9336C101.591 16.056 101.656 16.2031 101.656 16.375C101.656 16.5469 101.591 16.694 101.461 16.8164C101.333 16.9388 101.18 17 101 17ZM104.063 20.3906V24H103.142V18H104.032V18.9375H104.11C104.251 18.6328 104.465 18.388 104.751 18.2031C105.037 18.0156 105.407 17.9219 105.86 17.9219C106.267 17.9219 106.622 18.0052 106.927 18.1719C107.231 18.3359 107.468 18.5859 107.638 18.9219C107.807 19.2552 107.892 19.6771 107.892 20.1875V24H106.97V20.25C106.97 19.7786 106.847 19.4115 106.603 19.1484C106.358 18.8828 106.022 18.75 105.595 18.75C105.3 18.75 105.037 18.8138 104.806 18.9414C104.576 19.069 104.396 19.2552 104.263 19.5C104.13 19.7448 104.063 20.0417 104.063 20.3906ZM111.998 26.375C111.553 26.375 111.17 26.3177 110.85 26.2031C110.529 26.0911 110.262 25.9427 110.049 25.7578C109.838 25.5755 109.67 25.3802 109.545 25.1719L110.279 24.6563C110.363 24.7656 110.468 24.8906 110.596 25.0312C110.723 25.1745 110.898 25.2982 111.119 25.4023C111.343 25.5091 111.636 25.5625 111.998 25.5625C112.482 25.5625 112.882 25.4453 113.197 25.2109C113.512 24.9766 113.67 24.6094 113.67 24.1094V22.8906H113.592C113.524 23 113.428 23.1354 113.303 23.2969C113.18 23.4557 113.003 23.5977 112.771 23.7227C112.542 23.8451 112.232 23.9062 111.842 23.9062C111.357 23.9062 110.923 23.7917 110.537 23.5625C110.154 23.3333 109.851 23 109.627 22.5625C109.406 22.125 109.295 21.5937 109.295 20.9687C109.295 20.3542 109.403 19.819 109.619 19.3633C109.835 18.9049 110.136 18.5508 110.521 18.3008C110.907 18.0482 111.352 17.9219 111.857 17.9219C112.248 17.9219 112.558 17.987 112.787 18.1172C113.019 18.2448 113.196 18.3906 113.318 18.5547C113.443 18.7161 113.54 18.849 113.607 18.9531H113.701V18H114.592V24.1719C114.592 24.6875 114.475 25.1068 114.24 25.4297C114.008 25.7552 113.696 25.9935 113.303 26.1445C112.912 26.2982 112.477 26.375 111.998 26.375ZM111.967 23.0781C112.337 23.0781 112.649 22.9935 112.904 22.8242C113.16 22.6549 113.354 22.4115 113.486 22.0938C113.619 21.776 113.686 21.3958 113.686 20.9531C113.686 20.5208 113.62 20.1393 113.49 19.8086C113.36 19.4779 113.167 19.2187 112.912 19.0312C112.657 18.8437 112.342 18.75 111.967 18.75C111.576 18.75 111.251 18.849 110.99 19.0469C110.732 19.2448 110.538 19.5104 110.408 19.8438C110.281 20.1771 110.217 20.5469 110.217 20.9531C110.217 21.3698 110.282 21.7383 110.412 22.0586C110.545 22.3763 110.74 22.6263 110.998 22.8086C111.258 22.9883 111.581 23.0781 111.967 23.0781ZM119.498 24V16H120.467V23.1406H124.186V24H119.498ZM128.076 24.125C127.498 24.125 126.999 23.9974 126.58 23.7422C126.163 23.4844 125.842 23.125 125.615 22.6641C125.391 22.2005 125.279 21.6615 125.279 21.0469C125.279 20.4323 125.391 19.8906 125.615 19.4219C125.842 18.9505 126.157 18.5833 126.561 18.3203C126.967 18.0547 127.441 17.9219 127.982 17.9219C128.295 17.9219 128.604 17.974 128.908 18.0781C129.213 18.1823 129.49 18.3516 129.74 18.5859C129.99 18.8177 130.189 19.125 130.338 19.5078C130.486 19.8906 130.561 20.362 130.561 20.9219V21.3125H125.936V20.5156H129.623C129.623 20.1771 129.555 19.875 129.42 19.6094C129.287 19.3437 129.097 19.1341 128.85 18.9805C128.605 18.8268 128.316 18.75 127.982 18.75C127.615 18.75 127.298 18.8411 127.029 19.0234C126.764 19.2031 126.559 19.4375 126.416 19.7266C126.273 20.0156 126.201 20.3255 126.201 20.6562V21.1875C126.201 21.6406 126.279 22.0247 126.436 22.3398C126.594 22.6523 126.814 22.8906 127.096 23.0547C127.377 23.2161 127.704 23.2969 128.076 23.2969C128.318 23.2969 128.537 23.263 128.732 23.1953C128.93 23.125 129.101 23.0208 129.244 22.8828C129.387 22.7422 129.498 22.5677 129.576 22.3594L130.467 22.6094C130.373 22.9115 130.215 23.1771 129.994 23.4062C129.773 23.6328 129.499 23.8099 129.174 23.9375C128.848 24.0625 128.482 24.125 128.076 24.125ZM134.635 18V18.7812H131.4V18H134.635ZM132.369 24V17.1719C132.369 16.8281 132.45 16.5417 132.611 16.3125C132.773 16.0833 132.982 15.9115 133.24 15.7969C133.498 15.6823 133.77 15.625 134.057 15.625C134.283 15.625 134.468 15.6432 134.611 15.6797C134.755 15.7161 134.861 15.75 134.932 15.7812L134.666 16.5781C134.619 16.5625 134.554 16.543 134.471 16.5195C134.39 16.4961 134.283 16.4844 134.15 16.4844C133.846 16.4844 133.626 16.5612 133.49 16.7148C133.357 16.8685 133.291 17.0937 133.291 17.3906V24H132.369ZM138.536 18V18.7812H135.427V18H138.536ZM136.333 16.5625H137.255V22.2812C137.255 22.5417 137.293 22.737 137.368 22.8672C137.446 22.9948 137.545 23.0807 137.665 23.125C137.787 23.1667 137.916 23.1875 138.052 23.1875C138.153 23.1875 138.237 23.1823 138.302 23.1719C138.367 23.1589 138.419 23.1484 138.458 23.1406L138.646 23.9687C138.583 23.9922 138.496 24.0156 138.384 24.0391C138.272 24.0651 138.13 24.0781 137.958 24.0781C137.698 24.0781 137.442 24.0221 137.192 23.9102C136.945 23.7982 136.739 23.6276 136.575 23.3984C136.414 23.1693 136.333 22.8802 136.333 22.5312V16.5625Z" fill="black"/>
<defs>
<filter id="filter0_d_0_1" x="206.318" y="117.273" width="892.767" height="137.455" filterUnits="userSpaceOnUse" color-interpolation-filters="sRGB">
<feFlood flood-opacity="0" result="BackgroundImageFix"/>
<feColorMatrix in="SourceAlpha" type="matrix" values="0 0 0 0 0 0 0 0 0 0 0 0 0 0 0 0 0 0 127 0" result="hardAlpha"/>
<feOffset dx="3" dy="7"/>
<feGaussianBlur stdDeviation="2"/>
<feComposite in2="hardAlpha" operator="out"/>
<feColorMatrix type="matrix" values="0 0 0 0 0 0 0 0 0 0 0 0 0 0 0 0 0 0 0.25 0"/>
<feBlend mode="normal" in2="BackgroundImageFix" result="effect1_dropShadow_0_1"/>
<feBlend mode="normal" in="SourceGraphic" in2="effect1_dropShadow_0_1" result="shape"/>
</filter>
</defs>
</svg>
